<svg width="300" height="300" viewBox="0 0 300 300" fill="none" xmlns="http://www.w3.org/2000/svg">
<rect width="300" height="300" rx="25" fill="black"/>
<path d="M82.5398 256V45.0909H156.276C170.968 45.0909 183.085 47.6312 192.629 52.7116C202.172 57.7235 209.277 64.486 213.946 72.9993C218.615 81.4439 220.949 90.8153 220.949 101.114C220.949 110.176 219.335 117.66 216.109 123.564C212.951 129.468 208.763 134.137 203.545 137.57C198.396 141.002 192.8 143.543 186.759 145.19V147.25C193.212 147.662 199.7 149.928 206.222 154.047C212.745 158.166 218.203 164.071 222.597 171.76C226.991 179.449 229.188 188.855 229.188 199.977C229.188 210.55 226.785 220.059 221.979 228.504C217.173 236.948 209.586 243.642 199.219 248.585C188.853 253.528 175.362 256 158.747 256H82.5398ZM108.08 233.344H158.747C175.43 233.344 187.273 230.117 194.276 223.663C201.348 217.141 204.884 209.246 204.884 199.977C204.884 192.837 203.064 186.246 199.425 180.205C195.787 174.094 190.603 169.22 183.875 165.581C177.147 161.874 169.183 160.02 159.983 160.02H108.08V233.344ZM108.08 137.776H155.452C163.141 137.776 170.075 136.265 176.254 133.244C182.502 130.223 187.445 125.967 191.084 120.474C194.791 114.982 196.645 108.528 196.645 101.114C196.645 91.8452 193.418 83.9841 186.964 77.5305C180.511 71.0083 170.281 67.7472 156.276 67.7472H108.08V137.776Z" fill="white"/>
</svg>
